# xmcd CD database file
#
# Track frame offsets:
#	150
#	16325
#	38305
#	56887
#	74325
#	90350
#	104262
#	124725
#	150675
#	172237
#	191812
#	208297
#
# Disc length: 3112 seconds
#
# Revision: 0
# Processed by: cddbd v1.5.1PL0 Copyright (c) Steve Scherf et al.
# Submitted via: CDex 1.51
#
DISCID=a50c260c
DTITLE=L'luvia - L'luvialbum
DYEAR=1999
DGENRE=JPop
TTITLE0=LOVE TRAIN
TTITLE1=Follow the Future
TTITLE2=Let's go to the Beach
TTITLE3=Crazy be Ambitious
TTITLE4=Sexy 転校生
TTITLE5=I Got Freedom 〜野良猫ジョニ-の事情〜
TTITLE6=#5759
TTITLE7=ETERNAL WIND
TTITLE8=So Far Away
TTITLE9=スキスキ マイガ-ル
TTITLE10=恋シテマスカ 1999
TTITLE11=ALWAYS
EXTD=YEAR: 1999
EXTT0=
EXTT1=
EXTT2=
EXTT3=
EXTT4=
EXTT5=
EXTT6=
EXTT7=
EXTT8=
EXTT9=
EXTT10=
EXTT11=
PLAYORDER=
